{
	"patcher" : 	{
		"fileversion" : 1,
		"rect" : [ 50.0, 44.0, 516.0, 459.0 ],
		"bglocked" : 0,
		"defrect" : [ 50.0, 44.0, 516.0, 459.0 ],
		"openrect" : [ 0.0, 0.0, 0.0, 0.0 ],
		"openinpresentation" : 0,
		"default_fontsize" : 12.0,
		"default_fontface" : 0,
		"default_fontname" : "Arial",
		"gridonopen" : 0,
		"gridsize" : [ 15.0, 15.0 ],
		"gridsnaponopen" : 0,
		"toolbarvisible" : 1,
		"boxanimatetime" : 200,
		"imprint" : 0,
		"enablehscroll" : 1,
		"enablevscroll" : 1,
		"boxes" : [ 			{
				"box" : 				{
					"maxclass" : "message",
					"text" : "flush",
					"numinlets" : 2,
					"patching_rect" : [ 21.0, 169.0, 36.0, 18.0 ],
					"numoutlets" : 1,
					"fontname" : "Arial",
					"id" : "obj-1",
					"outlettype" : [ "" ],
					"fontsize" : 12.0
				}

			}
, 			{
				"box" : 				{
					"maxclass" : "message",
					"text" : "10 20 30 40 50 60 70",
					"numinlets" : 2,
					"patching_rect" : [ 303.0, 56.0, 122.0, 18.0 ],
					"numoutlets" : 1,
					"fontname" : "Arial",
					"id" : "obj-2",
					"outlettype" : [ "" ],
					"fontsize" : 12.0
				}

			}
, 			{
				"box" : 				{
					"maxclass" : "message",
					"text" : "1 2 3 4",
					"numinlets" : 2,
					"patching_rect" : [ 303.0, 81.0, 45.0, 18.0 ],
					"numoutlets" : 1,
					"fontname" : "Arial",
					"id" : "obj-3",
					"outlettype" : [ "" ],
					"fontsize" : 12.0
				}

			}
, 			{
				"box" : 				{
					"maxclass" : "message",
					"text" : "1.1 2.2 3.3 4.4",
					"numinlets" : 2,
					"patching_rect" : [ 303.0, 104.0, 87.0, 18.0 ],
					"numoutlets" : 1,
					"fontname" : "Arial",
					"id" : "obj-4",
					"outlettype" : [ "" ],
					"fontsize" : 12.0
				}

			}
, 			{
				"box" : 				{
					"maxclass" : "number",
					"numinlets" : 1,
					"patching_rect" : [ 303.0, 128.0, 38.0, 20.0 ],
					"htextcolor" : [ 0.870588, 0.870588, 0.870588, 1.0 ],
					"numoutlets" : 2,
					"fontname" : "Arial",
					"id" : "obj-5",
					"outlettype" : [ "int", "bang" ],
					"fontsize" : 12.0,
					"bgcolor" : [ 0.866667, 0.866667, 0.866667, 1.0 ],
					"mouseup" : 1,
					"triscale" : 0.9
				}

			}
, 			{
				"box" : 				{
					"maxclass" : "message",
					"text" : "0 0 0 0 0 0 0 0",
					"numinlets" : 2,
					"patching_rect" : [ 303.0, 33.0, 85.0, 18.0 ],
					"numoutlets" : 1,
					"fontname" : "Arial",
					"id" : "obj-6",
					"outlettype" : [ "" ],
					"fontsize" : 12.0
				}

			}
, 			{
				"box" : 				{
					"maxclass" : "message",
					"text" : "0 0 0 0 0 0 0 0",
					"numinlets" : 2,
					"patching_rect" : [ 159.0, 32.0, 85.0, 18.0 ],
					"numoutlets" : 1,
					"fontname" : "Arial",
					"id" : "obj-7",
					"outlettype" : [ "" ],
					"fontsize" : 12.0
				}

			}
, 			{
				"box" : 				{
					"maxclass" : "message",
					"text" : "clear",
					"numinlets" : 2,
					"patching_rect" : [ 88.0, 169.0, 38.0, 18.0 ],
					"numoutlets" : 1,
					"fontname" : "Arial",
					"id" : "obj-8",
					"outlettype" : [ "" ],
					"fontsize" : 12.0
				}

			}
, 			{
				"box" : 				{
					"maxclass" : "button",
					"numinlets" : 1,
					"patching_rect" : [ 89.0, 147.0, 15.0, 15.0 ],
					"numoutlets" : 1,
					"id" : "obj-9",
					"outlettype" : [ "bang" ]
				}

			}
, 			{
				"box" : 				{
					"maxclass" : "number",
					"numinlets" : 1,
					"patching_rect" : [ 163.0, 130.0, 38.0, 20.0 ],
					"htextcolor" : [ 0.870588, 0.870588, 0.870588, 1.0 ],
					"numoutlets" : 2,
					"fontname" : "Arial",
					"id" : "obj-10",
					"outlettype" : [ "int", "bang" ],
					"fontsize" : 12.0,
					"bgcolor" : [ 0.866667, 0.866667, 0.866667, 1.0 ],
					"mouseup" : 1,
					"triscale" : 0.9
				}

			}
, 			{
				"box" : 				{
					"maxclass" : "flonum",
					"numinlets" : 1,
					"patching_rect" : [ 162.0, 155.0, 39.0, 20.0 ],
					"htextcolor" : [ 0.870588, 0.870588, 0.870588, 1.0 ],
					"numoutlets" : 2,
					"fontname" : "Arial",
					"id" : "obj-11",
					"outlettype" : [ "float", "bang" ],
					"fontsize" : 12.0,
					"bgcolor" : [ 0.866667, 0.866667, 0.866667, 1.0 ],
					"mouseup" : 1,
					"triscale" : 0.9
				}

			}
, 			{
				"box" : 				{
					"maxclass" : "message",
					"text" : "1.1 2.2 3.3 4.4",
					"numinlets" : 2,
					"patching_rect" : [ 162.0, 108.0, 87.0, 18.0 ],
					"numoutlets" : 1,
					"fontname" : "Arial",
					"id" : "obj-12",
					"outlettype" : [ "" ],
					"fontsize" : 12.0
				}

			}
, 			{
				"box" : 				{
					"maxclass" : "message",
					"text" : "1 2 3 4",
					"numinlets" : 2,
					"patching_rect" : [ 162.0, 82.0, 45.0, 18.0 ],
					"numoutlets" : 1,
					"fontname" : "Arial",
					"id" : "obj-13",
					"outlettype" : [ "" ],
					"fontsize" : 12.0
				}

			}
, 			{
				"box" : 				{
					"maxclass" : "message",
					"text" : "10 20 30 40 50 60 70",
					"numinlets" : 2,
					"patching_rect" : [ 161.0, 56.0, 122.0, 18.0 ],
					"numoutlets" : 1,
					"fontname" : "Arial",
					"id" : "obj-14",
					"outlettype" : [ "" ],
					"fontsize" : 12.0
				}

			}
, 			{
				"box" : 				{
					"maxclass" : "newobj",
					"text" : "Laccum 2 5",
					"numinlets" : 2,
					"patching_rect" : [ 144.0, 197.0, 83.0, 20.0 ],
					"numoutlets" : 1,
					"fontname" : "Arial",
					"id" : "obj-15",
					"outlettype" : [ "" ],
					"fontsize" : 12.0
				}

			}
, 			{
				"box" : 				{
					"maxclass" : "message",
					"numinlets" : 2,
					"patching_rect" : [ 144.0, 251.0, 188.0, 18.0 ],
					"numoutlets" : 1,
					"fontname" : "Arial",
					"id" : "obj-16",
					"outlettype" : [ "" ],
					"fontsize" : 12.0
				}

			}
, 			{
				"box" : 				{
					"maxclass" : "comment",
					"text" : "Laccum",
					"numinlets" : 1,
					"patching_rect" : [ 16.0, 5.0, 108.0, 34.0 ],
					"numoutlets" : 0,
					"fontname" : "Arial",
					"id" : "obj-18",
					"fontsize" : 24.0
				}

			}
, 			{
				"box" : 				{
					"maxclass" : "comment",
					"text" : "List is added to stored list. Constant is added to all members of stored list. Stored list is then output.",
					"linecount" : 6,
					"numinlets" : 1,
					"patching_rect" : [ 16.0, 55.0, 118.0, 89.0 ],
					"numoutlets" : 0,
					"fontname" : "Arial",
					"id" : "obj-19",
					"fontsize" : 12.0
				}

			}
, 			{
				"box" : 				{
					"maxclass" : "comment",
					"text" : "In Left Inlet",
					"numinlets" : 1,
					"patching_rect" : [ 16.0, 39.0, 91.0, 20.0 ],
					"numoutlets" : 0,
					"fontname" : "Arial",
					"id" : "obj-20",
					"fontsize" : 12.0
				}

			}
, 			{
				"box" : 				{
					"maxclass" : "comment",
					"text" : "List is added to stored list. Constant is added to all members of stored list.",
					"linecount" : 5,
					"numinlets" : 1,
					"patching_rect" : [ 348.0, 190.0, 118.0, 75.0 ],
					"numoutlets" : 0,
					"fontname" : "Arial",
					"id" : "obj-21",
					"fontsize" : 12.0
				}

			}
, 			{
				"box" : 				{
					"maxclass" : "comment",
					"text" : "In Right Inlet",
					"numinlets" : 1,
					"patching_rect" : [ 348.0, 169.0, 94.0, 20.0 ],
					"numoutlets" : 0,
					"fontname" : "Arial",
					"id" : "obj-22",
					"fontsize" : 12.0
				}

			}
, 			{
				"box" : 				{
					"maxclass" : "comment",
					"text" : "Bang outputs stored list. clear sets list to one element of 0. restore sets list to arguments.",
					"linecount" : 5,
					"numinlets" : 1,
					"patching_rect" : [ 19.0, 234.0, 119.0, 75.0 ],
					"numoutlets" : 0,
					"fontname" : "Arial",
					"id" : "obj-23",
					"fontsize" : 12.0
				}

			}
, 			{
				"box" : 				{
					"maxclass" : "comment",
					"text" : "Arguments initialize stored list.",
					"linecount" : 2,
					"numinlets" : 1,
					"patching_rect" : [ 232.0, 190.0, 116.0, 34.0 ],
					"numoutlets" : 0,
					"fontname" : "Arial",
					"id" : "obj-24",
					"fontsize" : 12.0
				}

			}
, 			{
				"box" : 				{
					"maxclass" : "comment",
					"text" : "Length of list is that of longest list since clear.",
					"numinlets" : 1,
					"patching_rect" : [ 11.0, 326.0, 258.0, 20.0 ],
					"numoutlets" : 0,
					"fontname" : "Arial",
					"id" : "obj-25",
					"fontsize" : 12.0
				}

			}
, 			{
				"box" : 				{
					"maxclass" : "flonum",
					"numinlets" : 1,
					"patching_rect" : [ 303.0, 153.0, 39.0, 20.0 ],
					"htextcolor" : [ 0.870588, 0.870588, 0.870588, 1.0 ],
					"numoutlets" : 2,
					"fontname" : "Arial",
					"id" : "obj-26",
					"outlettype" : [ "float", "bang" ],
					"fontsize" : 12.0,
					"bgcolor" : [ 0.866667, 0.866667, 0.866667, 1.0 ],
					"mouseup" : 1,
					"triscale" : 0.9
				}

			}
, 			{
				"box" : 				{
					"maxclass" : "comment",
					"text" : "Each member is typed individually. Int + float = float.",
					"linecount" : 2,
					"numinlets" : 1,
					"patching_rect" : [ 273.0, 283.0, 168.0, 34.0 ],
					"numoutlets" : 0,
					"fontname" : "Arial",
					"id" : "obj-27",
					"fontsize" : 12.0
				}

			}
, 			{
				"box" : 				{
					"maxclass" : "comment",
					"text" : "Peter Elsea 1995",
					"numinlets" : 1,
					"patching_rect" : [ 8.0, 360.0, 121.0, 20.0 ],
					"numoutlets" : 0,
					"fontname" : "Arial",
					"id" : "obj-28",
					"fontsize" : 12.0
				}

			}
, 			{
				"box" : 				{
					"maxclass" : "comment",
					"text" : "University of California, Santa Cruz",
					"numinlets" : 1,
					"patching_rect" : [ 109.0, 360.0, 210.0, 20.0 ],
					"numoutlets" : 0,
					"fontname" : "Arial",
					"id" : "obj-29",
					"fontsize" : 12.0
				}

			}
, 			{
				"box" : 				{
					"maxclass" : "message",
					"text" : "restore",
					"numinlets" : 2,
					"patching_rect" : [ 24.0, 204.0, 50.0, 18.0 ],
					"numoutlets" : 1,
					"fontname" : "Arial",
					"id" : "obj-17",
					"outlettype" : [ "" ],
					"fontsize" : 12.0
				}

			}
 ],
		"lines" : [ 			{
				"patchline" : 				{
					"source" : [ "obj-17", 0 ],
					"destination" : [ "obj-15", 0 ],
					"hidden" : 0,
					"midpoints" : [ 33.5, 222.0, 84.0, 222.0, 84.0, 198.0, 141.0, 198.0, 141.0, 192.0, 153.5, 192.0 ]
				}

			}
, 			{
				"patchline" : 				{
					"source" : [ "obj-14", 0 ],
					"destination" : [ "obj-15", 0 ],
					"hidden" : 0,
					"midpoints" : [ 170.5, 77.0, 153.5, 77.0 ]
				}

			}
, 			{
				"patchline" : 				{
					"source" : [ "obj-13", 0 ],
					"destination" : [ "obj-15", 0 ],
					"hidden" : 0,
					"midpoints" : [ 171.5, 104.0, 153.5, 104.0 ]
				}

			}
, 			{
				"patchline" : 				{
					"source" : [ "obj-12", 0 ],
					"destination" : [ "obj-15", 0 ],
					"hidden" : 0,
					"midpoints" : [ 171.5, 128.0, 153.5, 128.0 ]
				}

			}
, 			{
				"patchline" : 				{
					"source" : [ "obj-11", 0 ],
					"destination" : [ "obj-15", 0 ],
					"hidden" : 0,
					"midpoints" : [ 171.5, 176.0, 153.5, 176.0 ]
				}

			}
, 			{
				"patchline" : 				{
					"source" : [ "obj-10", 0 ],
					"destination" : [ "obj-15", 0 ],
					"hidden" : 0,
					"midpoints" : [ 172.5, 151.0, 153.5, 151.0 ]
				}

			}
, 			{
				"patchline" : 				{
					"source" : [ "obj-9", 0 ],
					"destination" : [ "obj-15", 0 ],
					"hidden" : 0,
					"midpoints" : [ 98.0, 165.0, 153.5, 165.0 ]
				}

			}
, 			{
				"patchline" : 				{
					"source" : [ "obj-8", 0 ],
					"destination" : [ "obj-15", 0 ],
					"hidden" : 0,
					"midpoints" : [ 97.5, 188.0, 153.5, 188.0 ]
				}

			}
, 			{
				"patchline" : 				{
					"source" : [ "obj-7", 0 ],
					"destination" : [ "obj-15", 0 ],
					"hidden" : 0,
					"midpoints" : [ 168.5, 54.0, 153.5, 54.0 ]
				}

			}
, 			{
				"patchline" : 				{
					"source" : [ "obj-1", 0 ],
					"destination" : [ "obj-15", 0 ],
					"hidden" : 0,
					"midpoints" : [ 30.5, 193.0, 153.5, 193.0 ]
				}

			}
, 			{
				"patchline" : 				{
					"source" : [ "obj-26", 0 ],
					"destination" : [ "obj-15", 1 ],
					"hidden" : 0,
					"midpoints" : [ 312.5, 181.0, 217.5, 181.0 ]
				}

			}
, 			{
				"patchline" : 				{
					"source" : [ "obj-5", 0 ],
					"destination" : [ "obj-15", 1 ],
					"hidden" : 0,
					"midpoints" : [ 312.5, 150.0, 286.0, 150.0, 286.0, 181.0, 217.5, 181.0 ]
				}

			}
, 			{
				"patchline" : 				{
					"source" : [ "obj-6", 0 ],
					"destination" : [ "obj-15", 1 ],
					"hidden" : 0,
					"midpoints" : [ 312.5, 52.0, 286.0, 52.0, 286.0, 181.0, 217.5, 181.0 ]
				}

			}
, 			{
				"patchline" : 				{
					"source" : [ "obj-4", 0 ],
					"destination" : [ "obj-15", 1 ],
					"hidden" : 0,
					"midpoints" : [ 312.5, 124.0, 286.0, 124.0, 286.0, 181.0, 217.5, 181.0 ]
				}

			}
, 			{
				"patchline" : 				{
					"source" : [ "obj-3", 0 ],
					"destination" : [ "obj-15", 1 ],
					"hidden" : 0,
					"midpoints" : [ 312.5, 101.0, 286.0, 101.0, 286.0, 181.0, 217.5, 181.0 ]
				}

			}
, 			{
				"patchline" : 				{
					"source" : [ "obj-2", 0 ],
					"destination" : [ "obj-15", 1 ],
					"hidden" : 0,
					"midpoints" : [ 312.5, 76.0, 286.0, 76.0, 286.0, 181.0, 217.5, 181.0 ]
				}

			}
, 			{
				"patchline" : 				{
					"source" : [ "obj-15", 0 ],
					"destination" : [ "obj-16", 1 ],
					"hidden" : 0,
					"midpoints" : [ 153.5, 235.0, 322.5, 235.0 ]
				}

			}
 ]
	}

}
