{
	"patcher" : 	{
		"fileversion" : 1,
		"rect" : [ 40.0, 55.0, 459.0, 347.0 ],
		"bglocked" : 0,
		"defrect" : [ 40.0, 55.0, 459.0, 347.0 ],
		"openrect" : [ 0.0, 0.0, 0.0, 0.0 ],
		"openinpresentation" : 0,
		"default_fontsize" : 12.0,
		"default_fontface" : 0,
		"default_fontname" : "Arial",
		"gridonopen" : 0,
		"gridsize" : [ 15.0, 15.0 ],
		"gridsnaponopen" : 0,
		"toolbarvisible" : 1,
		"boxanimatetime" : 200,
		"imprint" : 0,
		"metadata" : [  ],
		"boxes" : [ 			{
				"box" : 				{
					"maxclass" : "message",
					"text" : "0 no",
					"numoutlets" : 1,
					"outlettype" : [ "" ],
					"fontname" : "Arial",
					"patching_rect" : [ 269.0, 180.0, 34.0, 18.0 ],
					"fontsize" : 12.0,
					"id" : "obj-1",
					"numinlets" : 2
				}

			}
, 			{
				"box" : 				{
					"maxclass" : "message",
					"text" : "1.2 0. 3.",
					"numoutlets" : 1,
					"outlettype" : [ "" ],
					"fontname" : "Arial",
					"patching_rect" : [ 375.0, 180.0, 70.0, 18.0 ],
					"fontsize" : 12.0,
					"id" : "obj-2",
					"numinlets" : 2
				}

			}
, 			{
				"box" : 				{
					"maxclass" : "message",
					"text" : "0 1 1 0",
					"numoutlets" : 1,
					"outlettype" : [ "" ],
					"fontname" : "Arial",
					"patching_rect" : [ 307.0, 180.0, 52.0, 18.0 ],
					"fontsize" : 12.0,
					"id" : "obj-3",
					"numinlets" : 2
				}

			}
, 			{
				"box" : 				{
					"maxclass" : "message",
					"numoutlets" : 1,
					"outlettype" : [ "" ],
					"fontname" : "Arial",
					"patching_rect" : [ 307.0, 273.0, 91.0, 18.0 ],
					"fontsize" : 12.0,
					"id" : "obj-4",
					"numinlets" : 2
				}

			}
, 			{
				"box" : 				{
					"maxclass" : "newobj",
					"text" : "lif yes no",
					"numoutlets" : 1,
					"outlettype" : [ "" ],
					"fontname" : "Arial",
					"patching_rect" : [ 307.0, 214.0, 64.0, 20.0 ],
					"fontsize" : 12.0,
					"id" : "obj-6",
					"numinlets" : 3
				}

			}
, 			{
				"box" : 				{
					"maxclass" : "message",
					"text" : "-4 3 2 oops",
					"numoutlets" : 1,
					"outlettype" : [ "" ],
					"fontname" : "Arial",
					"patching_rect" : [ 179.0, 181.0, 77.0, 18.0 ],
					"fontsize" : 12.0,
					"id" : "obj-7",
					"numinlets" : 2
				}

			}
, 			{
				"box" : 				{
					"maxclass" : "message",
					"text" : "7 8 9 10",
					"numoutlets" : 1,
					"outlettype" : [ "" ],
					"fontname" : "Arial",
					"patching_rect" : [ 118.0, 181.0, 58.0, 18.0 ],
					"fontsize" : 12.0,
					"id" : "obj-8",
					"numinlets" : 2
				}

			}
, 			{
				"box" : 				{
					"maxclass" : "message",
					"text" : "0 1 1 0",
					"numoutlets" : 1,
					"outlettype" : [ "" ],
					"fontname" : "Arial",
					"patching_rect" : [ 62.0, 181.0, 52.0, 18.0 ],
					"fontsize" : 12.0,
					"id" : "obj-9",
					"numinlets" : 2
				}

			}
, 			{
				"box" : 				{
					"maxclass" : "message",
					"numoutlets" : 1,
					"outlettype" : [ "" ],
					"fontname" : "Arial",
					"patching_rect" : [ 104.0, 273.0, 63.0, 18.0 ],
					"fontsize" : 12.0,
					"id" : "obj-10",
					"numinlets" : 2
				}

			}
, 			{
				"box" : 				{
					"maxclass" : "newobj",
					"text" : "lif",
					"numoutlets" : 1,
					"outlettype" : [ "" ],
					"fontname" : "Arial",
					"patching_rect" : [ 104.0, 214.0, 46.0, 20.0 ],
					"fontsize" : 12.0,
					"id" : "obj-12",
					"numinlets" : 3
				}

			}
, 			{
				"box" : 				{
					"maxclass" : "comment",
					"text" : "Lif",
					"numoutlets" : 0,
					"fontname" : "Arial",
					"patching_rect" : [ 17.0, 36.0, 46.0, 34.0 ],
					"fontsize" : 24.0,
					"id" : "obj-13",
					"numinlets" : 1
				}

			}
, 			{
				"box" : 				{
					"maxclass" : "comment",
					"text" : "a conditional operator for lists",
					"numoutlets" : 0,
					"fontname" : "Arial",
					"patching_rect" : [ 69.0, 46.0, 235.0, 23.0 ],
					"fontsize" : 14.0,
					"id" : "obj-14",
					"numinlets" : 1
				}

			}
, 			{
				"box" : 				{
					"maxclass" : "comment",
					"text" : "Items in list in left are tested.",
					"numoutlets" : 0,
					"fontname" : "Arial",
					"patching_rect" : [ 15.0, 82.0, 189.0, 20.0 ],
					"fontsize" : 12.0,
					"id" : "obj-15",
					"numinlets" : 1
				}

			}
, 			{
				"box" : 				{
					"maxclass" : "comment",
					"text" : "If the item is true, the corresponding item from the middle list is placed in the output list.",
					"linecount" : 2,
					"numoutlets" : 0,
					"fontname" : "Arial",
					"patching_rect" : [ 15.0, 102.0, 262.0, 34.0 ],
					"fontsize" : 12.0,
					"id" : "obj-16",
					"numinlets" : 1
				}

			}
, 			{
				"box" : 				{
					"maxclass" : "comment",
					"text" : "If the item is 0, the corresponding item from the right list is placed in the output list.",
					"linecount" : 2,
					"numoutlets" : 0,
					"fontname" : "Arial",
					"patching_rect" : [ 15.0, 136.0, 245.0, 34.0 ],
					"fontsize" : 12.0,
					"id" : "obj-17",
					"numinlets" : 1
				}

			}
, 			{
				"box" : 				{
					"maxclass" : "comment",
					"text" : "Symbols always test as true.",
					"numoutlets" : 0,
					"fontname" : "Arial",
					"patching_rect" : [ 283.0, 82.0, 163.0, 20.0 ],
					"fontsize" : 12.0,
					"id" : "obj-18",
					"numinlets" : 1
				}

			}
, 			{
				"box" : 				{
					"maxclass" : "comment",
					"text" : "Arguments initialize the true and false results.",
					"linecount" : 2,
					"numoutlets" : 0,
					"fontname" : "Arial",
					"patching_rect" : [ 284.0, 102.0, 148.0, 34.0 ],
					"fontsize" : 12.0,
					"id" : "obj-19",
					"numinlets" : 1
				}

			}
, 			{
				"box" : 				{
					"maxclass" : "comment",
					"text" : "Peter Elsea 2002",
					"numoutlets" : 0,
					"fontname" : "Arial",
					"patching_rect" : [ 12.0, 298.0, 130.0, 20.0 ],
					"fontsize" : 12.0,
					"id" : "obj-20",
					"numinlets" : 1
				}

			}
, 			{
				"box" : 				{
					"maxclass" : "comment",
					"text" : "The University of California Santa Cruz",
					"numoutlets" : 0,
					"fontname" : "Arial",
					"patching_rect" : [ 12.0, 319.0, 301.0, 20.0 ],
					"fontsize" : 12.0,
					"id" : "obj-21",
					"numinlets" : 1
				}

			}
 ],
		"lines" : [ 			{
				"patchline" : 				{
					"source" : [ "obj-9", 0 ],
					"destination" : [ "obj-12", 0 ],
					"hidden" : 0,
					"midpoints" : [ 71.5, 210.0, 113.5, 210.0 ]
				}

			}
, 			{
				"patchline" : 				{
					"source" : [ "obj-8", 0 ],
					"destination" : [ "obj-12", 1 ],
					"hidden" : 0,
					"midpoints" : [  ]
				}

			}
, 			{
				"patchline" : 				{
					"source" : [ "obj-7", 0 ],
					"destination" : [ "obj-12", 2 ],
					"hidden" : 0,
					"midpoints" : [ 188.5, 210.0, 140.5, 210.0 ]
				}

			}
, 			{
				"patchline" : 				{
					"source" : [ "obj-2", 0 ],
					"destination" : [ "obj-6", 0 ],
					"hidden" : 0,
					"midpoints" : [ 384.5, 210.0, 316.5, 210.0 ]
				}

			}
, 			{
				"patchline" : 				{
					"source" : [ "obj-3", 0 ],
					"destination" : [ "obj-6", 0 ],
					"hidden" : 0,
					"midpoints" : [  ]
				}

			}
, 			{
				"patchline" : 				{
					"source" : [ "obj-1", 0 ],
					"destination" : [ "obj-6", 0 ],
					"hidden" : 0,
					"midpoints" : [ 278.5, 210.0, 316.5, 210.0 ]
				}

			}
, 			{
				"patchline" : 				{
					"source" : [ "obj-12", 0 ],
					"destination" : [ "obj-10", 1 ],
					"hidden" : 0,
					"midpoints" : [ 113.5, 256.0, 157.5, 256.0 ]
				}

			}
, 			{
				"patchline" : 				{
					"source" : [ "obj-6", 0 ],
					"destination" : [ "obj-4", 1 ],
					"hidden" : 0,
					"midpoints" : [ 316.5, 257.0, 388.5, 257.0 ]
				}

			}
 ]
	}

}
