{
	"patcher" : 	{
		"fileversion" : 1,
		"rect" : [ 40.0, 55.0, 396.0, 338.0 ],
		"bglocked" : 0,
		"defrect" : [ 40.0, 55.0, 396.0, 338.0 ],
		"openrect" : [ 0.0, 0.0, 0.0, 0.0 ],
		"openinpresentation" : 0,
		"default_fontsize" : 12.0,
		"default_fontface" : 0,
		"default_fontname" : "Arial",
		"gridonopen" : 0,
		"gridsize" : [ 15.0, 15.0 ],
		"gridsnaponopen" : 0,
		"toolbarvisible" : 1,
		"boxanimatetime" : 200,
		"imprint" : 0,
		"metadata" : [  ],
		"boxes" : [ 			{
				"box" : 				{
					"maxclass" : "message",
					"fontsize" : 12.0,
					"patching_rect" : [ 259.0, 235.0, 119.0, 18.0 ],
					"numinlets" : 2,
					"id" : "obj-1",
					"numoutlets" : 1,
					"fontname" : "Arial",
					"outlettype" : [ "" ]
				}

			}
, 			{
				"box" : 				{
					"maxclass" : "newobj",
					"text" : "uzi 100",
					"fontsize" : 12.0,
					"patching_rect" : [ 260.0, 69.0, 52.0, 20.0 ],
					"numinlets" : 2,
					"id" : "obj-2",
					"numoutlets" : 3,
					"fontname" : "Arial",
					"outlettype" : [ "bang", "bang", "int" ]
				}

			}
, 			{
				"box" : 				{
					"maxclass" : "newobj",
					"text" : "p symbols",
					"fontsize" : 12.0,
					"patching_rect" : [ 11.0, 235.0, 69.0, 20.0 ],
					"numinlets" : 0,
					"id" : "obj-3",
					"numoutlets" : 0,
					"fontname" : "Arial",
					"patcher" : 					{
						"fileversion" : 1,
						"rect" : [ 40.0, 55.0, 566.0, 284.0 ],
						"bglocked" : 0,
						"defrect" : [ 40.0, 55.0, 566.0, 284.0 ],
						"openrect" : [ 0.0, 0.0, 0.0, 0.0 ],
						"openinpresentation" : 0,
						"default_fontsize" : 12.0,
						"default_fontface" : 0,
						"default_fontname" : "Arial",
						"gridonopen" : 0,
						"gridsize" : [ 15.0, 15.0 ],
						"gridsnaponopen" : 0,
						"toolbarvisible" : 1,
						"boxanimatetime" : 200,
						"imprint" : 0,
						"metadata" : [  ],
						"boxes" : [ 							{
								"box" : 								{
									"maxclass" : "message",
									"text" : "z y x w v u t s r q p o n m l k j i h g f e d c b a",
									"fontsize" : 12.0,
									"patching_rect" : [ 11.0, 63.0, 288.0, 18.0 ],
									"numinlets" : 2,
									"id" : "obj-1",
									"numoutlets" : 1,
									"fontname" : "Arial",
									"outlettype" : [ "" ]
								}

							}
, 							{
								"box" : 								{
									"maxclass" : "message",
									"text" : "fum fi fo fee",
									"fontsize" : 12.0,
									"patching_rect" : [ 86.0, 84.0, 82.0, 18.0 ],
									"numinlets" : 2,
									"id" : "obj-2",
									"numoutlets" : 1,
									"fontname" : "Arial",
									"outlettype" : [ "" ]
								}

							}
, 							{
								"box" : 								{
									"maxclass" : "message",
									"text" : "aBc abc abC",
									"fontsize" : 12.0,
									"patching_rect" : [ 290.0, 95.0, 79.0, 18.0 ],
									"numinlets" : 2,
									"id" : "obj-3",
									"numoutlets" : 1,
									"fontname" : "Arial",
									"outlettype" : [ "" ]
								}

							}
, 							{
								"box" : 								{
									"maxclass" : "message",
									"text" : "Byte bit",
									"fontsize" : 12.0,
									"patching_rect" : [ 289.0, 142.0, 56.0, 18.0 ],
									"numinlets" : 2,
									"id" : "obj-4",
									"numoutlets" : 1,
									"fontname" : "Arial",
									"outlettype" : [ "" ]
								}

							}
, 							{
								"box" : 								{
									"maxclass" : "message",
									"text" : "byte bit",
									"fontsize" : 12.0,
									"patching_rect" : [ 291.0, 119.0, 54.0, 18.0 ],
									"numinlets" : 2,
									"id" : "obj-5",
									"numoutlets" : 1,
									"fontname" : "Arial",
									"outlettype" : [ "" ]
								}

							}
, 							{
								"box" : 								{
									"maxclass" : "toggle",
									"patching_rect" : [ 302.0, 38.0, 18.0, 18.0 ],
									"numinlets" : 1,
									"id" : "obj-6",
									"numoutlets" : 1,
									"outlettype" : [ "int" ]
								}

							}
, 							{
								"box" : 								{
									"maxclass" : "message",
									"text" : "casesensitive $1",
									"fontsize" : 12.0,
									"patching_rect" : [ 302.0, 62.0, 109.0, 18.0 ],
									"numinlets" : 2,
									"id" : "obj-7",
									"numoutlets" : 1,
									"fontname" : "Arial",
									"outlettype" : [ "" ]
								}

							}
, 							{
								"box" : 								{
									"maxclass" : "message",
									"text" : "3 B 1. A",
									"fontsize" : 12.0,
									"patching_rect" : [ 33.0, 153.0, 56.0, 18.0 ],
									"numinlets" : 2,
									"id" : "obj-8",
									"numoutlets" : 1,
									"fontname" : "Arial",
									"outlettype" : [ "" ]
								}

							}
, 							{
								"box" : 								{
									"maxclass" : "message",
									"fontsize" : 12.0,
									"patching_rect" : [ 179.0, 196.0, 116.0, 18.0 ],
									"numinlets" : 2,
									"id" : "obj-9",
									"numoutlets" : 1,
									"fontname" : "Arial",
									"outlettype" : [ "" ]
								}

							}
, 							{
								"box" : 								{
									"maxclass" : "newobj",
									"text" : "lsort",
									"fontsize" : 12.0,
									"patching_rect" : [ 179.0, 143.0, 36.0, 20.0 ],
									"numinlets" : 1,
									"id" : "obj-11",
									"numoutlets" : 1,
									"fontname" : "Arial",
									"outlettype" : [ "" ]
								}

							}
, 							{
								"box" : 								{
									"maxclass" : "comment",
									"text" : "Symbols are sorted after numerals.",
									"linecount" : 2,
									"fontsize" : 12.0,
									"patching_rect" : [ 32.0, 181.0, 130.0, 34.0 ],
									"numinlets" : 1,
									"id" : "obj-12",
									"numoutlets" : 0,
									"fontname" : "Arial"
								}

							}
, 							{
								"box" : 								{
									"maxclass" : "comment",
									"text" : "Sorting Symbols",
									"fontsize" : 12.0,
									"patching_rect" : [ 7.0, 26.0, 114.0, 20.0 ],
									"numinlets" : 1,
									"id" : "obj-13",
									"numoutlets" : 0,
									"fontname" : "Arial"
								}

							}
, 							{
								"box" : 								{
									"maxclass" : "comment",
									"text" : "If the case sensitive flag is turned on, sort will put caps before lower case.",
									"linecount" : 4,
									"fontsize" : 12.0,
									"patching_rect" : [ 380.0, 89.0, 124.0, 62.0 ],
									"numinlets" : 1,
									"id" : "obj-14",
									"numoutlets" : 0,
									"fontname" : "Arial"
								}

							}
, 							{
								"box" : 								{
									"maxclass" : "comment",
									"text" : "An arg of 0 will turn off case sensitivity. It defaults to off.",
									"linecount" : 3,
									"fontsize" : 12.0,
									"patching_rect" : [ 381.0, 152.0, 115.0, 48.0 ],
									"numinlets" : 1,
									"id" : "obj-15",
									"numoutlets" : 0,
									"fontname" : "Arial"
								}

							}
, 							{
								"box" : 								{
									"maxclass" : "comment",
									"text" : "Symbols are alphabetized.",
									"fontsize" : 12.0,
									"patching_rect" : [ 20.0, 111.0, 175.0, 20.0 ],
									"numinlets" : 1,
									"id" : "obj-16",
									"numoutlets" : 0,
									"fontname" : "Arial"
								}

							}
 ],
						"lines" : [ 							{
								"patchline" : 								{
									"source" : [ "obj-11", 0 ],
									"destination" : [ "obj-9", 1 ],
									"hidden" : 0,
									"midpoints" : [ 188.5, 181.0, 285.5, 181.0 ]
								}

							}
, 							{
								"patchline" : 								{
									"source" : [ "obj-6", 0 ],
									"destination" : [ "obj-7", 0 ],
									"hidden" : 0,
									"midpoints" : [  ]
								}

							}
, 							{
								"patchline" : 								{
									"source" : [ "obj-1", 0 ],
									"destination" : [ "obj-11", 0 ],
									"hidden" : 1,
									"midpoints" : [ 20.5, 96.0, 6.0, 96.0, 6.0, 141.0, 174.0, 141.0, 174.0, 138.0, 188.5, 138.0 ]
								}

							}
, 							{
								"patchline" : 								{
									"source" : [ "obj-2", 0 ],
									"destination" : [ "obj-11", 0 ],
									"hidden" : 1,
									"midpoints" : [ 95.5, 108.0, 195.0, 108.0, 195.0, 138.0, 188.5, 138.0 ]
								}

							}
, 							{
								"patchline" : 								{
									"source" : [ "obj-8", 0 ],
									"destination" : [ "obj-11", 0 ],
									"hidden" : 1,
									"midpoints" : [ 42.5, 171.0, 99.0, 171.0, 99.0, 141.0, 174.0, 141.0, 174.0, 138.0, 188.5, 138.0 ]
								}

							}
, 							{
								"patchline" : 								{
									"source" : [ "obj-7", 0 ],
									"destination" : [ "obj-11", 0 ],
									"hidden" : 1,
									"midpoints" : [ 311.5, 81.0, 276.0, 81.0, 276.0, 129.0, 195.0, 129.0, 195.0, 138.0, 188.5, 138.0 ]
								}

							}
, 							{
								"patchline" : 								{
									"source" : [ "obj-5", 0 ],
									"destination" : [ "obj-11", 0 ],
									"hidden" : 1,
									"midpoints" : [ 300.5, 138.0, 188.5, 138.0 ]
								}

							}
, 							{
								"patchline" : 								{
									"source" : [ "obj-4", 0 ],
									"destination" : [ "obj-11", 0 ],
									"hidden" : 1,
									"midpoints" : [ 298.5, 162.0, 225.0, 162.0, 225.0, 138.0, 188.5, 138.0 ]
								}

							}
, 							{
								"patchline" : 								{
									"source" : [ "obj-3", 0 ],
									"destination" : [ "obj-11", 0 ],
									"hidden" : 1,
									"midpoints" : [ 299.5, 114.0, 207.0, 114.0, 207.0, 138.0, 188.5, 138.0 ]
								}

							}
 ]
					}
,
					"saved_object_attributes" : 					{
						"fontface" : 0,
						"fontsize" : 12.0,
						"default_fontface" : 0,
						"default_fontname" : "Arial",
						"globalpatchername" : "",
						"fontname" : "Arial",
						"default_fontsize" : 12.0
					}

				}

			}
, 			{
				"box" : 				{
					"maxclass" : "message",
					"text" : "1 0 * 1",
					"fontsize" : 12.0,
					"patching_rect" : [ 206.0, 132.0, 52.0, 18.0 ],
					"numinlets" : 2,
					"id" : "obj-4",
					"numoutlets" : 1,
					"fontname" : "Arial",
					"outlettype" : [ "" ]
				}

			}
, 			{
				"box" : 				{
					"maxclass" : "toggle",
					"patching_rect" : [ 259.0, 26.0, 15.0, 15.0 ],
					"numinlets" : 1,
					"id" : "obj-6",
					"numoutlets" : 1,
					"outlettype" : [ "int" ]
				}

			}
, 			{
				"box" : 				{
					"maxclass" : "newobj",
					"text" : "metro 500",
					"fontsize" : 12.0,
					"patching_rect" : [ 259.0, 49.0, 71.0, 20.0 ],
					"numinlets" : 2,
					"id" : "obj-7",
					"numoutlets" : 1,
					"fontname" : "Arial",
					"outlettype" : [ "bang" ]
				}

			}
, 			{
				"box" : 				{
					"maxclass" : "newobj",
					"text" : "thresh",
					"fontsize" : 12.0,
					"patching_rect" : [ 259.0, 109.0, 44.0, 20.0 ],
					"numinlets" : 2,
					"id" : "obj-8",
					"numoutlets" : 1,
					"fontname" : "Arial",
					"outlettype" : [ "" ]
				}

			}
, 			{
				"box" : 				{
					"maxclass" : "newobj",
					"text" : "random 20",
					"fontsize" : 12.0,
					"patching_rect" : [ 259.0, 87.0, 74.0, 20.0 ],
					"numinlets" : 2,
					"id" : "obj-9",
					"numoutlets" : 1,
					"fontname" : "Arial",
					"outlettype" : [ "int" ]
				}

			}
, 			{
				"box" : 				{
					"maxclass" : "message",
					"fontsize" : 12.0,
					"patching_rect" : [ 114.0, 235.0, 117.0, 18.0 ],
					"numinlets" : 2,
					"id" : "obj-10",
					"numoutlets" : 1,
					"fontname" : "Arial",
					"outlettype" : [ "" ]
				}

			}
, 			{
				"box" : 				{
					"maxclass" : "message",
					"text" : "3. 1 2",
					"fontsize" : 12.0,
					"patching_rect" : [ 157.0, 132.0, 45.0, 18.0 ],
					"numinlets" : 2,
					"id" : "obj-11",
					"numoutlets" : 1,
					"fontname" : "Arial",
					"outlettype" : [ "" ]
				}

			}
, 			{
				"box" : 				{
					"maxclass" : "message",
					"text" : "3 1 2",
					"fontsize" : 12.0,
					"patching_rect" : [ 114.0, 132.0, 39.0, 18.0 ],
					"numinlets" : 2,
					"id" : "obj-12",
					"numoutlets" : 1,
					"fontname" : "Arial",
					"outlettype" : [ "" ]
				}

			}
, 			{
				"box" : 				{
					"maxclass" : "newobj",
					"text" : "Lsort",
					"fontsize" : 12.0,
					"patching_rect" : [ 114.0, 177.0, 39.0, 20.0 ],
					"numinlets" : 1,
					"id" : "obj-14",
					"numoutlets" : 1,
					"fontname" : "Arial",
					"outlettype" : [ "" ]
				}

			}
, 			{
				"box" : 				{
					"maxclass" : "comment",
					"text" : "Lsort",
					"fontsize" : 24.0,
					"patching_rect" : [ 12.0, 39.0, 72.0, 34.0 ],
					"numinlets" : 1,
					"id" : "obj-15",
					"numoutlets" : 0,
					"fontname" : "Arial"
				}

			}
, 			{
				"box" : 				{
					"maxclass" : "comment",
					"text" : "It sorts lists",
					"fontsize" : 14.0,
					"patching_rect" : [ 111.0, 60.0, 101.0, 23.0 ],
					"numinlets" : 1,
					"id" : "obj-16",
					"numoutlets" : 0,
					"fontname" : "Arial"
				}

			}
, 			{
				"box" : 				{
					"maxclass" : "comment",
					"text" : "A list of ints or floats is sorted in ascending order.",
					"linecount" : 3,
					"fontsize" : 12.0,
					"patching_rect" : [ 3.0, 132.0, 102.0, 48.0 ],
					"numinlets" : 1,
					"id" : "obj-17",
					"numoutlets" : 0,
					"fontname" : "Arial"
				}

			}
, 			{
				"box" : 				{
					"maxclass" : "comment",
					"text" : "Peter Elsea 2002",
					"fontsize" : 12.0,
					"patching_rect" : [ 11.0, 280.0, 130.0, 20.0 ],
					"numinlets" : 1,
					"id" : "obj-18",
					"numoutlets" : 0,
					"fontname" : "Arial"
				}

			}
, 			{
				"box" : 				{
					"maxclass" : "comment",
					"text" : "University of California, Santa Cruz",
					"fontsize" : 12.0,
					"patching_rect" : [ 11.0, 303.0, 224.0, 20.0 ],
					"numinlets" : 1,
					"id" : "obj-19",
					"numoutlets" : 0,
					"fontname" : "Arial"
				}

			}
 ],
		"lines" : [ 			{
				"patchline" : 				{
					"source" : [ "obj-8", 0 ],
					"destination" : [ "obj-1", 1 ],
					"hidden" : 0,
					"midpoints" : [ 268.5, 192.0, 368.5, 192.0 ]
				}

			}
, 			{
				"patchline" : 				{
					"source" : [ "obj-14", 0 ],
					"destination" : [ "obj-10", 1 ],
					"hidden" : 0,
					"midpoints" : [ 123.5, 215.0, 221.5, 215.0 ]
				}

			}
, 			{
				"patchline" : 				{
					"source" : [ "obj-7", 0 ],
					"destination" : [ "obj-2", 0 ],
					"hidden" : 0,
					"midpoints" : [  ]
				}

			}
, 			{
				"patchline" : 				{
					"source" : [ "obj-9", 0 ],
					"destination" : [ "obj-8", 0 ],
					"hidden" : 0,
					"midpoints" : [  ]
				}

			}
, 			{
				"patchline" : 				{
					"source" : [ "obj-2", 0 ],
					"destination" : [ "obj-9", 0 ],
					"hidden" : 0,
					"midpoints" : [  ]
				}

			}
, 			{
				"patchline" : 				{
					"source" : [ "obj-6", 0 ],
					"destination" : [ "obj-7", 0 ],
					"hidden" : 0,
					"midpoints" : [  ]
				}

			}
, 			{
				"patchline" : 				{
					"source" : [ "obj-11", 0 ],
					"destination" : [ "obj-14", 0 ],
					"hidden" : 0,
					"midpoints" : [ 166.5, 162.0, 123.5, 162.0 ]
				}

			}
, 			{
				"patchline" : 				{
					"source" : [ "obj-12", 0 ],
					"destination" : [ "obj-14", 0 ],
					"hidden" : 0,
					"midpoints" : [  ]
				}

			}
, 			{
				"patchline" : 				{
					"source" : [ "obj-4", 0 ],
					"destination" : [ "obj-14", 0 ],
					"hidden" : 0,
					"midpoints" : [ 215.5, 162.0, 123.5, 162.0 ]
				}

			}
, 			{
				"patchline" : 				{
					"source" : [ "obj-8", 0 ],
					"destination" : [ "obj-14", 0 ],
					"hidden" : 0,
					"midpoints" : [ 268.5, 162.0, 123.5, 162.0 ]
				}

			}
 ]
	}

}
